<svg viewBox="0 0 24 24" xmlns="http://www.w3.org/2000/svg"><defs><style>.c{fill:#fff;}.d{fill:#232323;}</style></defs><g id="a"></g><g id="b"><path d="M12.38,5.7c-.24-.14-.53-.14-.77,0l-5.75,3.32v9.51h3.45v-4.6c0-.42,.34-.77,.77-.77h3.83c.42,0,.77,.34,.77,.77v4.6h3.45V9.02l-5.75-3.32Zm-1.53-1.33c.71-.41,1.59-.41,2.3,0l5.75,3.32c.48,.27,.77,.77,.77,1.33v10.28c0,.42-.34,.77-.77,.77h-4.98c-.42,0-.77-.34-.77-.77v-4.6h-2.3v4.6c0,.42-.34,.77-.77,.77H5.11c-.42,0-.77-.34-.77-.77V9.02c0-.55,.29-1.06,.77-1.33l5.75-3.32Z" class="c"></path></g></svg>