<svg viewBox="0 0 24 24" xmlns="http://www.w3.org/2000/svg"><defs><style>.c{fill:#b3b3b3;}.d{fill:#232323;}</style></defs><g id="a"></g><g id="b"><g><path d="M20,6.4H8.8v-1.6h11.2v1.6Z" class="c"></path><path d="M20,19.2H8.8v-1.6h11.2v1.6Z" class="c"></path><path d="M20,12.8H8.8v-1.6h11.2v1.6Z" class="c"></path><path d="M6.4,5.6c0,.66-.54,1.2-1.2,1.2s-1.2-.54-1.2-1.2,.54-1.2,1.2-1.2,1.2,.54,1.2,1.2Z" class="c"></path><path d="M6.4,12c0,.66-.54,1.2-1.2,1.2s-1.2-.54-1.2-1.2,.54-1.2,1.2-1.2,1.2,.54,1.2,1.2Z" class="c"></path><path d="M6.4,18.4c0,.66-.54,1.2-1.2,1.2s-1.2-.54-1.2-1.2,.54-1.2,1.2-1.2,1.2,.54,1.2,1.2Z" class="c"></path></g></g></svg>