<svg viewBox="0 0 24 24" xmlns="http://www.w3.org/2000/svg"><defs><style>.c{fill:#b3b3b3;}.d{fill:#232323;}</style></defs><g id="a"></g><g id="b"><g><path d="M4,4.73c0-.4,.33-.73,.73-.73h5.09c.4,0,.73,.33,.73,.73v5.09c0,.4-.33,.73-.73,.73H4.73c-.4,0-.73-.33-.73-.73V4.73Zm1.45,.73v3.64h3.64v-3.64h-3.64Z" class="c"></path><path d="M4,14.18c0-.4,.33-.73,.73-.73h5.09c.4,0,.73,.33,.73,.73v5.09c0,.4-.33,.73-.73,.73H4.73c-.4,0-.73-.33-.73-.73v-5.09Zm1.45,.73v3.64h3.64v-3.64h-3.64Z" class="c"></path><path d="M13.45,4.73c0-.4,.33-.73,.73-.73h5.09c.4,0,.73,.33,.73,.73v5.09c0,.4-.33,.73-.73,.73h-5.09c-.4,0-.73-.33-.73-.73V4.73Zm1.45,.73v3.64h3.64v-3.64h-3.64Z" class="c"></path><path d="M13.45,14.18c0-.4,.33-.73,.73-.73h5.09c.4,0,.73,.33,.73,.73v5.09c0,.4-.33,.73-.73,.73h-5.09c-.4,0-.73-.33-.73-.73v-5.09Zm1.45,.73v3.64h3.64v-3.64h-3.64Z" class="c"></path></g></g></svg>