<svg viewBox="0 0 24 24" xmlns="http://www.w3.org/2000/svg"><defs><style>.c{fill:#b3b3b3;}.d{fill:#232323;}</style></defs><g id="a"></g><g id="b"><path d="M7.28,4.79c.8-.26,1.66-.29,2.48-.1,.82,.19,1.57,.6,2.18,1.18,.01,.02,.03,.03,.06,.03s.04,0,.06-.03c.52-.49,1.15-.86,1.84-1.08s1.42-.27,2.14-.15h0c.95,.15,1.83,.59,2.53,1.26,.69,.67,1.16,1.54,1.35,2.48h0c.14,.7,.12,1.41-.06,2.09s-.51,1.31-.97,1.84l-5.53,6.59c-.17,.19-.37,.35-.61,.46-.23,.11-.48,.17-.74,.17s-.51-.06-.74-.17c-.24-.1-.44-.26-.61-.46l-5.53-6.59c-.46-.54-.79-1.16-.97-1.84s-.2-1.4-.06-2.09c.16-.83,.54-1.59,1.1-2.23,.56-.63,1.28-1.09,2.09-1.35Zm2.17,1.25c-.58-.13-1.18-.1-1.75,.08-.57,.17-1.08,.51-1.47,.95-.4,.45-.67,.99-.78,1.57h0c-.1,.49-.08,.99,.05,1.47,.13,.47,.35,.92,.68,1.29h0l5.53,6.6s.08,.08,.13,.1c.05,.02,.1,.03,.15,.03s.1-.01,.15-.03c.05-.02,.09-.06,.13-.1l5.54-6.6c.33-.38,.56-.82,.68-1.29,.13-.48,.15-.98,.05-1.47-.13-.66-.47-1.27-.95-1.75-.49-.47-1.11-.78-1.78-.89-.5-.08-1.02-.04-1.5,.11-.48,.15-.93,.41-1.29,.76h0c-.27,.26-.63,.4-1.01,.4s-.74-.15-1.01-.4h0c-.42-.41-.96-.7-1.54-.83Z" class="c"></path></g></svg>