<svg viewBox="0 0 24 24" xmlns="http://www.w3.org/2000/svg"><defs><style>.c{fill:#fff;}.d{fill:#b3b3b3;}</style></defs><g id="a"></g><g id="b"><g><path d="M12,5.45c-3.64,0-6.55,2.93-6.55,6.55s2.91,6.55,6.55,6.55,6.55-2.93,6.55-6.55-2.91-6.55-6.55-6.55ZM4,12c0-4.42,3.56-8,8-8s8,3.58,8,8-3.56,8-8,8-8-3.58-8-8Z" class="c"></path><path d="M16.36,12c0,.4-.29,.73-.73,.73h-2.91v2.91c0,.4-.29,.73-.73,.73s-.73-.33-.73-.73v-2.91h-2.91c-.44,0-.73-.33-.73-.73s.29-.73,.73-.73h2.91v-2.91c0-.4,.29-.73,.73-.73s.73,.33,.73,.73v2.91h2.91c.44,0,.73,.33,.73,.73Z" class="c"></path></g></g></svg>